<?xml version="1.0" encoding="UTF-8"?>
<!DOCTYPE svg PUBLIC "-//W3C//DTD SVG 1.1//EN" "http://www.w3.org/Graphics/SVG/1.1/DTD/svg11.dtd">
<!-- Creator: CorelDRAW 2021 (64-Bit) -->
<svg xmlns="http://www.w3.org/2000/svg" xml:space="preserve" width="251.124mm" height="144.125mm" version="1.1" style="shape-rendering:geometricPrecision; text-rendering:geometricPrecision; image-rendering:optimizeQuality; fill-rule:evenodd; clip-rule:evenodd"
viewBox="0 0 13656.46 7837.7"
 xmlns:xlink="http://www.w3.org/1999/xlink"
 xmlns:xodm="http://www.corel.com/coreldraw/odm/2003">
 <defs>
  <style type="text/css">
   <![CDATA[
    .fil1 {fill:#F4BF6F}
    .fil0 {fill:white}
   ]]>
  </style>
 </defs>
 <g id="Layer_x0020_1">
  <metadata id="CorelCorpID_0Corel-Layer"/>
  <g id="_1991102606208">
   <path class="fil0" d="M5492.51 7583l1.87 254.7 2643.34 -0.71 4.04 -253.8c-938.87,114.52 -835.39,-1051.77 -822.93,-1626.19 759.7,-35.84 1283.62,-202.74 1811.52,-678 644.25,-579.99 659.62,-1521.84 719.65,-2305.16 21.61,-281.91 62.21,-684.43 176.51,-913.88 72.93,-146.41 146.58,-211.19 254.44,-292.1 237.59,-178.22 235.1,-188.1 148.44,-294.03 -205.13,-54.72 -323.27,-47.45 -474.19,-16.77 -679.84,210.89 -999.43,994.07 -1066.3,1637.95 -53.63,516.39 -117.07,967.51 -337.61,1446.94 -205.43,446.57 -703.56,986.2 -1237.97,978.54l0.57 -511.43 21.93 -2160.54c12.13,-499.53 259.95,-1025.04 815.43,-950.19l-1.85 -251.85 -2641.34 0.75 -3.76 251.18c584.47,-78.73 816.55,456.55 818.67,958.32l16.59 2138.55 1.83 525.2c-533.74,6.46 -1031,-532.46 -1236.21,-978.54 -220.54,-479.43 -283.98,-930.55 -337.61,-1446.94 -66.87,-643.87 -386.47,-1427.06 -1066.3,-1637.95 -166.62,-32.46 -269.06,-37.95 -474.19,16.77 -86.66,105.93 -89.14,115.81 148.44,294.03 107.87,80.91 181.51,145.69 254.44,292.1 114.29,229.46 154.9,631.98 176.51,913.88 60.03,783.32 75.41,1725.17 719.65,2305.16 527.91,475.26 1051.83,642.16 1811.52,678 12.89,593.49 -30.75,1737.99 -845.12,1625.99z"/>
   <path class="fil0" d="M12694.08 5935.96c29.87,796.38 85.99,1759.96 962.39,1639.42l-2.6 262.32 -2996.67 -0.98 -5.62 -261.06c868.45,116.73 876.26,-824.72 910.2,-1614.75 44.49,-1035.34 28.61,-2059.9 -82.78,-3087.25 -53.35,-680.87 -212.64,-996.47 -571.76,-1218.69 2020.33,841.54 1718.35,2454.98 1786.85,4280.99z"/>
   <circle class="fil1" cx="6828.23" cy="670.98" r="670.98"/>
   <path class="fil0" d="M962.39 5935.96c-29.87,796.38 -85.99,1759.96 -962.39,1639.42l2.6 262.32 2996.67 -0.98 5.62 -261.06c-868.45,116.73 -876.26,-824.72 -910.2,-1614.75 -44.49,-1035.34 -28.61,-2059.9 82.78,-3087.25 53.35,-680.87 212.64,-996.47 571.76,-1218.69 -2020.33,841.54 -1718.35,2454.98 -1786.85,4280.99z"/>
  </g>
 </g>
</svg>
