<?xml version="1.0" encoding="UTF-8"?>
<!DOCTYPE svg PUBLIC "-//W3C//DTD SVG 1.1//EN" "http://www.w3.org/Graphics/SVG/1.1/DTD/svg11.dtd">
<!-- Creator: CorelDRAW 2021 (64-Bit) -->
<svg xmlns="http://www.w3.org/2000/svg" xml:space="preserve" width="251.124mm" height="144.125mm" version="1.1" style="shape-rendering:geometricPrecision; text-rendering:geometricPrecision; image-rendering:optimizeQuality; fill-rule:evenodd; clip-rule:evenodd"
viewBox="0 0 25989.48 14915.85"
 xmlns:xlink="http://www.w3.org/1999/xlink"
 xmlns:xodm="http://www.corel.com/coreldraw/odm/2003">
 <defs>
  <style type="text/css">
   <![CDATA[
    .fil0 {fill:#3F91F5}
    .fil1 {fill:#F4BF6F}
   ]]>
  </style>
 </defs>
 <g id="Layer_x0020_1">
  <metadata id="CorelCorpID_0Corel-Layer"/>
  <g id="_1991097651760">
   <path class="fil0" d="M10452.74 14431.14l3.56 484.72 5030.51 -1.35 7.68 -483c-1786.76,217.93 -1589.82,-2001.62 -1566.11,-3094.78 1445.77,-68.21 2442.84,-385.83 3447.49,-1290.29 1226.07,-1103.78 1255.32,-2896.21 1369.57,-4386.93 41.12,-536.49 118.4,-1302.53 335.91,-1739.2 138.79,-278.63 278.95,-401.91 484.23,-555.9 452.15,-339.18 447.42,-357.98 282.5,-559.57 -390.38,-104.14 -615.21,-90.31 -902.42,-31.92 -1293.79,401.33 -1902.01,1891.81 -2029.27,3117.16 -102.06,982.74 -222.79,1841.27 -642.5,2753.66 -390.95,849.87 -1338.94,1876.84 -2355.98,1862.24l1.08 -973.3 41.74 -4111.69c23.08,-950.65 494.71,-1950.74 1551.83,-1808.29l-3.53 -479.29 -5026.71 1.43 -7.15 478.02c1112.31,-149.83 1553.96,868.85 1558,1823.78l31.57 4069.85 3.48 999.5c-1015.76,12.28 -1962.09,-1013.32 -2352.61,-1862.24 -419.71,-912.39 -540.44,-1770.91 -642.5,-2753.66 -127.26,-1225.35 -735.48,-2715.83 -2029.27,-3117.16 -317.1,-61.77 -512.04,-72.23 -902.42,31.92 -164.92,201.59 -169.64,220.4 282.5,559.57 205.28,153.99 345.44,277.27 484.23,555.9 217.51,436.68 294.79,1202.71 335.91,1739.2 114.25,1490.73 143.5,3283.15 1369.57,4386.93 1004.65,904.46 2001.72,1222.08 3447.49,1290.29 24.54,1129.47 -58.52,3307.56 -1608.35,3094.4z"/>
   <path class="fil0" d="M24157.97 11296.66c56.84,1515.57 163.64,3349.37 1831.51,3119.97l-4.96 499.23 -5702.93 -1.87 -10.7 -496.83c1652.74,222.15 1667.61,-1569.52 1732.2,-3073.01 84.68,-1970.34 54.45,-3920.17 -157.55,-5875.32 -101.53,-1295.76 -404.68,-1896.38 -1088.11,-2319.28 3844.87,1601.54 3270.18,4672.05 3400.55,8147.11z"/>
   <circle class="fil1" cx="12994.73" cy="1276.93" r="1276.93"/>
   <path class="fil0" d="M1831.51 11296.66c-56.84,1515.57 -163.64,3349.37 -1831.51,3119.97l4.96 499.23 5702.93 -1.87 10.7 -496.83c-1652.74,222.15 -1667.61,-1569.52 -1732.2,-3073.01 -84.68,-1970.34 -54.45,-3920.17 157.55,-5875.32 101.53,-1295.76 404.68,-1896.38 1088.11,-2319.28 -3844.87,1601.54 -3270.18,4672.05 -3400.55,8147.11z"/>
  </g>
 </g>
</svg>
